PathFileType	4	(X/Y/Z)	C:\Users\°ÂÌØÂü\Desktop\20210112\bx_n_0_1802-Unnamed.trc
DataRate	CameraRate	NumFrames	NumMarkers	Units	OrigDataRate	OrigDataStartFrame	OrigNumFrames
50.00	50.00	       6	0	mm	50.00	266	       425
Frame#	Time	
		

266	5.300	-613.63916	269.14359	460.98935	-550.42084	91.25050	539.99670	-823.86426	303.39264	605.37958	-734.52301	9.08475	699.84857	-707.75928	233.52831	683.58295	-689.63550	292.87143	581.44531	-590.93573	268.53613	542.26843	-1023.59894	120.63372	731.49640	-520.89856	27.84417	469.46054	-556.91022	265.90414	515.58795	-507.17383	215.50055	477.90958				-702.33002	82.21946	204.27663	-648.10449	-59.25594	170.53528	-523.77142	153.28769	538.25708	-750.82318	220.00375	207.80019	-608.39288	-63.83964	172.25203	-882.46967	296.17999	144.73534	-669.68414	58.20216	150.64810	-596.94794	25.98494	164.98065	-552.52039	-33.07181	169.88533	-517.84863	-72.64709	143.16245	-586.48151	211.59125	173.73767	-653.67371	290.06836	158.57228	-619.21887	298.62289	159.69785	-551.34106	250.35239	165.48080	-528.11023	304.21655	146.67133	-391.27261	124.55601	1268.60974	-490.02106	293.12918	994.91632	-786.31616	167.49248	190.59340	-501.73969	-52.90669	1002.40240	-787.79370	52.03685	177.92558				-631.43939	-32.32980	459.21024	-744.42969	-6.79590	211.57176	-875.88751	-78.54328	141.29303	-821.32520	-64.09902	644.35358	-565.11755	-24.34273	518.99414	-671.17053	164.73891	151.71159							-715.86188	-53.37828	603.55304	-581.89014	-25.96874	551.99231	-694.55573	145.29266	205.35928	
267	5.320	-613.96960	268.97549	461.53458	-550.54840	91.41758	540.27246	-823.97876	303.34177	605.51178	-734.47601	9.61091	699.95599	-708.76849	233.44432	683.83704	-689.75482	292.87988	581.57477	-591.39771	268.58994	542.58221	-1023.59576	120.84044	731.41766	-521.51056	27.86967	469.60410	-557.34772	265.85529	515.83563	-507.64050	214.71509	478.40286				-702.41235	82.32092	204.13275	-648.18964	-59.42605	170.63181	-523.96466	152.97128	538.97614	-750.80157	219.95210	207.85130	-608.33484	-63.93880	172.36380	-882.42493	296.04254	144.68279	-669.81989	58.32347	150.74989	-597.02838	26.03095	164.89799	-552.54663	-32.90627	169.58357	-517.82251	-72.76317	143.29663	-586.48151	211.59125	173.73767	-653.68488	290.05396	158.66025	-619.19513	298.60580	159.66132	-551.31329	250.38823	165.37598	-528.18341	304.11401	146.55998	-391.61343	124.40833	1268.67346	-490.48755	293.01385	995.10321	-786.20361	167.42584	190.69135	-501.81644	-52.86631	1002.28168	-787.72253	52.05365	177.83630				-631.56628	-32.38754	459.29813	-744.37573	-6.90106	211.59470	-875.89166	-78.62025	141.27696	-821.45264	-64.19731	644.68298	-565.48505	-24.30792	519.36353	-670.77417	164.45064	151.98531							-716.29370	-53.52259	603.83673	-582.37640	-25.48213	551.66101	-694.52728	145.32576	205.22371	
268	5.340	-614.37622	268.93909	461.34821	-551.23572	91.34679	540.00714	-824.20319	303.57675	605.82593	-734.78131	9.76109	699.99945	-709.08203	233.47379	684.18018	-690.02228	293.17136	581.99542	-591.71088	268.65112	542.84570	-1023.75085	120.68976	731.68433	-521.73151	27.73318	469.58426	-557.57782	265.94678	516.17847	-507.79959	214.62367	478.48135				-702.41235	82.32092	204.13275	-648.14526	-59.32969	170.66133	-524.35187	152.81723	539.31665	-750.89954	220.03659	207.86624	-608.47131	-63.93742	172.18358	-882.52698	296.03412	144.76205	-669.80750	57.99622	150.58931	-596.95697	25.92301	164.88950	-552.52039	-33.07181	169.88533	-517.84668	-72.83995	143.21233	-586.54456	211.53098	173.74937	-653.67151	290.00876	158.64558	-619.18323	298.50272	159.35283	-551.31854	250.41821	165.48410	-528.17303	304.13773	146.65773	-392.07376	124.45391	1268.83972	-490.99570	292.89703	995.20050	-786.22498	167.43874	190.42520	-502.13434	-52.91998	1002.13281	-787.84851	51.95981	178.00484				-632.04248	-32.82196	459.61258	-744.37573	-6.90106	211.59470	-875.79388	-78.47688	141.16841	-822.54163	-64.10881	645.66840	-565.53290	-24.24329	519.38818	-670.68866	164.21796	152.07452							-716.47046	-53.79872	604.20776	-582.62616	-25.48115	551.92328	-694.67407	145.34044	205.33327	
269	5.360	-614.45959	269.29541	461.78244	-551.41907	91.06785	540.45044	-825.10956	303.25479	606.06665	-735.10858	9.68219	699.89532	-709.10272	233.55460	684.56024	-690.10223	292.99615	582.14301	-592.05688	268.27402	542.46320	-1024.21631	120.47077	732.29382	-522.04828	27.61674	469.66693	-557.69482	265.85605	516.40924	-508.26242	214.79291	478.49216				-702.41235	82.32092	204.13275	-648.25531	-59.40447	170.60204	-525.24365	153.12733	539.03644	-750.76770	220.05728	207.82990	-608.54199	-64.15411	172.01930	-882.49841	296.12909	144.66632	-669.80750	57.99622	150.58931	-596.96381	25.90912	164.91130	-552.48846	-32.91503	169.66258	-517.71619	-72.70596	143.22549	-586.56232	211.59328	173.77350	-653.67371	290.06836	158.57228	-619.32593	298.69528	159.54131	-551.34106	250.35239	165.48080	-528.21838	304.00342	146.47696	-392.72043	124.60193	1268.90759	-491.26990	292.77194	995.39545	-786.25677	167.45256	190.35617	-502.24310	-53.09008	1002.02087	-787.79370	52.03685	177.92558				-632.29529	-33.37095	459.68073	-744.30121	-6.74246	211.51131	-875.79388	-78.47688	141.16841	-822.61664	-64.03774	645.69800	-565.60120	-24.50254	519.36023	-671.26788	164.68011	151.98019							-716.50043	-53.96013	604.22192	-583.17651	-26.21145	552.44653	-694.52728	145.32576	205.22371	
270	5.380	-614.85522	269.49976	461.83847	-551.25409	90.77046	541.02155	-825.53497	303.44333	606.25061	-735.20575	9.83181	700.01813	-709.26733	233.34485	684.41150	-690.62604	292.93668	582.32965	-593.46271	266.38553	541.48956	-1025.02930	119.95258	732.45038	-522.42664	27.12820	469.56638	-558.14856	265.91147	516.93982	-508.57236	215.15631	478.72656				-702.33002	82.21946	204.27663	-648.32629	-59.55205	170.47450	-525.39722	152.83331	539.35895	-750.93439	220.05583	207.82794	-608.61121	-64.17677	171.94231	-882.55676	296.08594	144.72644	-669.70166	58.30078	150.92276	-597.03271	25.85605	165.13579	-552.53284	-32.86410	169.62209	-517.75690	-72.81055	143.37228	-586.60144	211.77919	173.98711	-653.67645	290.05389	158.56581	-619.30176	298.56674	159.49066	-551.34570	250.51787	165.51692	-528.17377	303.96555	146.50659	-393.36099	124.87547	1269.20313	-491.56796	292.79739	995.54102	-786.40155	167.52608	190.41129	-502.49957	-53.85985	1002.32300	-787.97302	51.90613	178.11716				-632.40839	-33.37932	459.35944	-744.52271	-6.83707	211.44316	-875.80457	-78.52492	141.11989	-822.84735	-64.28305	645.98199	-565.93652	-24.52890	519.44830	-671.32904	164.98837	151.55994							-716.63110	-54.12473	604.18091	-583.25244	-26.29014	552.61084	-694.67407	145.34044	205.33327	
271	5.400	-614.98279	269.59262	461.86508	-551.29865	90.46132	541.28503	-825.73224	303.27594	606.74219	-735.49194	9.58475	700.05573	-709.56195	233.17404	684.34412	-691.24805	292.17590	581.97546	-593.77203	266.23425	542.08514	-1025.25305	119.78470	732.54816	-522.53290	27.01312	469.86105	-558.43561	266.04550	517.09320	-509.04837	215.17308	478.66721				-702.33002	82.21946	204.27663	-648.17291	-59.57864	170.37961	-525.51801	152.89317	539.42804	-750.96149	220.11282	207.80618	-608.61121	-64.17677	171.94231	-882.62518	296.07382	144.62932	-669.81989	58.32347	150.74989	-597.07971	25.74603	164.85341	-552.52039	-33.07181	169.88533	-517.91669	-72.97008	143.18219	-586.69861	211.68317	173.65758	-653.61511	289.96231	158.81665	-619.16925	298.67700	159.51707	-551.36823	250.45204	165.51363	-528.12793	304.02591	146.71939	-394.04785	124.70042	1269.50916	-491.94742	293.03894	995.90753	-786.45013	167.44603	190.53419	-502.76874	-54.00462	1002.30170	-787.88159	51.93079	178.13251				-632.64081	-33.62832	459.85718	-744.52271	-6.83707	211.44316	-875.89813	-78.59131	141.24451	-823.36035	-64.34179	646.15387	-566.57953	-25.17573	519.66296	-671.58490	165.19215	151.89812							-717.19751	-54.28581	604.42456	-583.52692	-26.31237	552.71265	-694.56403	145.52098	205.35710	
